# xmcd CD database file
#
# Track frame offsets:
#	150
#	8552
#	21976
#	35705
#	48756
#	63286
#	76329
#	89369
#	103367
#	116841
#	129284
#	143640
#	153061
#	166665
#	178599
#	192618
#	206491
#	216758
#	226286
#	234655
#	244392
#	256231
#
# Disc length: 3593 seconds
#
# Revision: 0
# Processed by: cddbd v1.5.2PL0 Copyright (c) Steve Scherf et al.
# Submitted via: CDex 1.70beta2
#
DISCID=270e0716
DTITLE=Various Artist - La Collection en OR COUNTRY 2
DYEAR=2009
DGENRE=Country
TTITLE0=01 - Johnny Cash - Country boy
TTITLE1=02 - Freddy Fender - I can't stop loving you
TTITLE2=03 - Lynn Anderson - Two dorrs down
TTITLE3=04 - Kenny Rogers - Ruby don't take your love to town
TTITLE4=05 - TG Sheppard - Only one you
TTITLE5=06 - Ferlin Husky - I'd be a legend in my time
TTITLE6=07 - Dolly Parton - Little Blossom
TTITLE7=08 - Stonewall Jackson - Keep off the grass
TTITLE8=09 - Patsy Cline - Life's railway to heaven
TTITLE9=10 - Freddy Fender - Before the next teardrop falls
TTITLE10=11 - Exile - Woke up in love
TTITLE11=12 - Johnny Tillotson - Tears on my pillow
TTITLE12=13 - Jack Greene - You are my treasure
TTITLE13=14 - Moe Bandy - Let's get over them together
TTITLE14=15 - Johnny Paycheck - I'm the only hell my mama ever raised
TTITLE15=16 - Lacy J. Dalton - Tennessee Waltz
TTITLE16=17 - Dave Dudley - Six days on the road
TTITLE17=18 - Lynn Anderson - Snowbird
TTITLE18=19 - Waylon Jennings - Abilene
TTITLE19=20 - Don Gibson - Sweet Dreams
TTITLE20=21 - Roy Drusky - Luckenbach Texas
TTITLE21=22 - Kenny Rogers - A stranger in my place
EXTD=YEAR: 2009
EXTT0=
EXTT1=
EXTT2=
EXTT3=
EXTT4=
EXTT5=
EXTT6=
EXTT7=
EXTT8=
EXTT9=
EXTT10=
EXTT11=
EXTT12=
EXTT13=
EXTT14=
EXTT15=
EXTT16=
EXTT17=
EXTT18=
EXTT19=
EXTT20=
EXTT21=
PLAYORDER=
